<svg xmlns="http://www.w3.org/2000/svg" xmlns:xlink="http://www.w3.org/1999/xlink" width="308" height="156"><title>Illustrasjon av en arbeidsgiver som snakker i telefonen</title><defs><path id="a" d="M25.502.398L25.5.27C25.5 7.5 32.216 15 40.5 15 48.7 15 55.362 7.653 55.498.492c4.293 1.154 10.669 4.341 15.971 9.576S81 23.175 81 29.284V66H0V29.284C0 23.187 4.14 15.328 9.345 10.1c5.376-5.4 11.89-8.63 16.157-9.702z"/><path id="c" d="M55.014 18.528l.192 2.983 2.835 3.291.433 2.226.359 2.987 1.721 2.344-.194 2.55.175 2.996 2.167 2.897v2.531l2.499 2.815.709-2.77-.313-2.665-.425-2.553.738-2.72-1.001-2.722L66 29.884l-.403-2.508-.437-2.652.437-2.954-.688-1.812-1.333-3.018-.53-2.747-2.492-2.203-.34-2.374-2.173-2.575L54 6.191l-1.986-1.883-2.695-1.213-2.735-1.744-3.093.481-2.668-.654L38.23.23 35.51.135l-2.713.493L30.077 0l-2.678.62-2.732.085-2.54 1.127-2.708.418-2.688.674-2.407 1.384-1.933 2.085-2.655 1.042L7.97 9.616l-1.591 2.27-1.5 2.307-1.668 2.241-.968 2.62L2.06 21.9l.04 2.8L0 27.087l.785 2.868-.615 2.7.915 2.73L.06 38.16l1.142 2.642v2.741l.561 2.957 1.794-2.324 1.17-2.428.732-2.58-.427-3.102 1.134-2.474 2.076-2.013-.348-2.444 1.235-2.4 1.117-2.457v-2.377l2.145-3.222 4.327.452 2.501 1.916 2.837-1.247 2.68.158 2.636 1.166 2.697.646 2.718-.79 2.713.492 2.668-1.009 2.733.473 2.59-1.516 2.865 1.613 2.593-1.25z"/><path id="e" d="M19.5 18.821c0-2.662 5.372-3.321 12-3.321s12 .659 12 3.321c0 2.663-3.319 8.162-12 8.162-8.681 0-12-5.499-12-8.162zm11.64-6.393c-4.643 0-7.11 1.339-13.895 3.215C7.604 18.31 3.15 10.84 1.575 3.5.671-.711 0 1.06 0 1.06c0 28.77 19.217 38.483 31.756 38.483C44.492 39.543 63 30.199 63 .5c0-.66-1.275-.336-1.5.56-1.324 5.264.17 18.66-16.904 14.583-5.977-2.52-8.81-3.215-13.455-3.215z"/></defs><g fill="none" fill-rule="evenodd"><path fill="#FF9100" d="M136.076 66.002l16.66-16.478v16.478h-16.66zm103.609 0h-16.662l16.662-16.478v16.478zm43.473 0h-16.66l16.66-16.48v16.48zm19.634 0H286.13v-16.48l16.66 16.48zm-38.397-18.56h16.66l-16.66 16.48v-16.48zm-27.89-2.94h-37.32V26.174l37.32 18.328zM196.21 25.94v16.377L179.76 25.94h16.45zm-21.737 1.04V44.5h-17.712l17.712-17.52zM172.371 66h-16.66V49.524l16.66 16.479zm5.077 4.953l16.624 16.55h-16.624v-16.55zm.069 35.968V90.444h16.765l-16.765 16.478zm0 7.242l16.418 16.343h-16.418v-16.343zm-.07 35.695v-16.411h16.697l-16.696 16.41zm18.763 2.15h-16.73l16.73-16.444v16.444zm.07-40.061v16.718l-16.797-16.718h16.797zm0-19.318v16.375h-16.662L196.28 92.63zm-.07-23.686v16.514l-16.589-16.514h16.59zm19.633-2.942h-16.658V49.524l16.658 16.478zm5.078-18.56h16.661l-16.661 16.48v-16.48zm-43.473-19.628l16.762 16.688h-16.762V27.814zm-2.975 36.108l-16.66-16.48h16.66v16.48zm21.737 2.08h-16.452l16.452-16.17v16.17zm-18.762-18.56h16.66l-16.66 16.48v-16.48zm40.5 16.48l-16.66-16.48h16.66v16.48zm26.813-16.48h16.66v16.48l-16.66-16.48zm14.557 18.56h-16.66V49.524l16.66 16.478zm26.813 32.187h18.894v-7.874h-18.894v7.874zM131.113 68.036c.23.55.773.908 1.374.908h41.986v20.03c0 .149.029.288.07.422v20.71c-.041.135-.07.273-.07.416-.001.147.027.29.07.426v20.607a1.44 1.44 0 00-.07.422v20.082h-20.25a1.48 1.48 0 00-1.487 1.47 1.48 1.48 0 001.487 1.471h65.211a1.48 1.48 0 001.487-1.47c0-.812-.666-1.47-1.487-1.47h-20.249v-19.663c.04-.134.07-.272.07-.42V88.974c0-.146-.03-.285-.07-.42v-19.61h95.651v18.429h-10.192a1.48 1.48 0 00-1.486 1.472V99.66c0 .812.665 1.47 1.486 1.47h21.87c.82 0 1.486-.658 1.486-1.47V88.845a1.48 1.48 0 00-1.487-1.472h-10.19V68.944h10.058c.603 0 1.144-.358 1.374-.908a1.457 1.457 0 00-.322-1.603l-21.737-21.5a1.498 1.498 0 00-.225-.185c-.04-.026-.084-.044-.127-.066-.043-.023-.085-.05-.13-.069a1.448 1.448 0 00-.266-.08c-.017-.005-.038-.005-.054-.008a1.384 1.384 0 00-.208-.023h-44.839l-40.662-19.97v-.062a1.48 1.48 0 00-1.486-1.47h-21.74a1.48 1.48 0 00-1.486 1.47v.432l-19.814 19.6h-.445a1.5 1.5 0 00-.286.028c-.025.006-.048.015-.074.022a1.434 1.434 0 00-.196.06c-.033.015-.064.032-.097.049-.05.025-.102.049-.148.08-.033.022-.064.048-.095.071-.033.026-.068.048-.1.075l-.002.003-.003.003-.003.001v.002c-.012.012-.026.022-.036.035l-.003.002-21.735 21.5a1.457 1.457 0 00-.323 1.603z"/><path fill="#403A33" d="M27.197 77.347l-1.672.033a1.205 1.205 0 01-1.17-1.236l.86-25.943a1.203 1.203 0 011.234-1.17L28.121 49l-.924 28.347z"/><g fill="#E7E5E2"><path d="M27.717 54.339c1.111 1.856-.92 4.332-5.153 6.607-2.324 1.247-.244 3.835.161 7.94.39 3.943 1.015 15.17.025 16.648l-8.457.038c-.305-6.178-.88-8.9-1.154-14.998-.203-4.534-.497-8.697 2.31-10.204 8.031-4.31 10.742-8.58 12.268-6.031"/><path d="M21.017 68.738c.87-3.423 8.687-2.498 7.951.747-.675 2.989-5.55-2.103-6.639 2.087l-1.312-2.834z"/><path d="M20.017 64.44c2.108-4.504 9.912-3.118 8.912.146-.845 2.762-5.61-2.157-7.481 2.986l-1.43-3.132zm2 8.595c.651-2.023 1.744-2.775 3.67-2.347 2.135.477 4.161 2.692 2.982 4.201-.778.999-2.258.421-3.046-.429-.473-.507-2.258-.325-2.4 2.112l-1.206-3.537z"/></g><path fill="#105573" d="M12.986 78l10.997 4.856-3.647 19.845 33.027-13.038-8.282 27.649-32.89 9.383c-1.737.678-3.645.875-5.461.45-4.627-1.085-7.282-3.826-6.633-8.746C.745 113.48 12.986 78 12.986 78z"/><path fill="#E7E5E2" fill-rule="nonzero" d="M63.866 19.5c16.329 0 29.704 14.703 31.305 33.491a2.46 2.46 0 01.26-.013c1.714 0 3.069 1.485 3.069 3.284v10.173c0 1.737-1.263 3.18-2.894 3.277l-.176.005a2.925 2.925 0 01-1.845-.657c-2.571 8.743-7.813 16.01-14.577 20.416l.338 3.773-.002.154-3.571 31.097H53.124l-.094-.653-4.378-30.498.162-3.814c-6.765-4.373-12.019-11.603-14.619-20.313a2.908 2.908 0 01-1.45.49l-.175.005c-1.713 0-3.07-1.484-3.07-3.282V56.262c0-1.796 1.354-3.28 3.064-3.284C34.169 34.196 47.54 19.5 63.866 19.5z"/><g fill="#59514B"><path d="M52.76 59.093c-2.067.179-2.646-3.313-2.023-5.593.118-.432.802-2.4 2.014-2.4 1.21 0 1.744 1.076 1.818 1.26.89 2.224.453 6.537-1.808 6.733m23.979 0c2.067.179 2.646-3.313 2.023-5.593-.118-.432-.802-2.4-2.014-2.4-1.21 0-1.744 1.076-1.818 1.26-.89 2.224-.453 6.537 1.808 6.733"/><path fill-rule="nonzero" d="M65.516 62.534c1.237-.225 2.081-.084 2.383.357 1.142 1.665.777 3.426-1.181 4.872-1.03.76-2.447 1.028-3.197.633-.367-.192-.796.005-.959.44-.162.435.004.945.37 1.137 1.24.652 3.148.292 4.553-.746 2.661-1.965 3.27-4.903 1.541-7.425-.732-1.066-2.027-1.283-3.73-.972-.397.073-.67.513-.608.984.06.47.432.793.828.72zm8.941 11.443a7.238 7.238 0 01-.507.892 11.35 11.35 0 01-1.712 2.058c-2.06 1.952-4.74 3.081-8.15 2.978-3.325-.1-5.993-1.212-8.085-3.004a11.9 11.9 0 01-1.909-2.065 7.213 7.213 0 01-.567-.892.81.81 0 00-1.077-.362.79.79 0 00-.367 1.063c.118.237.348.625.7 1.112.577.8 1.296 1.599 2.165 2.343 2.36 2.023 5.378 3.28 9.09 3.393 3.867.117 6.958-1.185 9.315-3.42a12.882 12.882 0 001.955-2.35c.315-.487.52-.874.625-1.11a.79.79 0 00-.416-1.046.81.81 0 00-1.06.41z"/></g><g transform="translate(23.5 90)"><mask id="b" fill="#fff"><use xlink:href="#a"/></mask><use fill="#0C5472" xlink:href="#a"/><g mask="url(#b)"><path fill="#F79221" d="M37.5 66l-2.316-52.221c-1.854-4.524-3.406-7.588-4.658-9.193-1.399-1.794-3.821-3.827-7.268-6.1-1.985.87-7.386 4.542-8.924 6.1 0 .054 5.907 2.107-3.834 35.481V66h27zm6 0l2.499-52.44c1.502-4.489 2.855-7.669 4.06-9.54 1.025-1.59 3.017-3.603 5.976-6.037 4.131 1.596 7.46 4.03 10.566 6.633 0 .054-5.842 2.077 3.899 35.451V66h-27z"/><path fill="#D8D8D8" fill-rule="nonzero" d="M10.5 44.045h25.996l.25 4.705H10.5zm0 12.545h26.56l.25 4.705H10.5zm59.996-12.545H44.5l-.25 4.705h26.246zm0 12.545H43.95l-.257 4.705h26.802z"/></g></g><g transform="translate(31 12)"><mask id="d" fill="#fff"><use xlink:href="#c"/></mask><use fill="#3E3832" xlink:href="#c"/><g fill="#8B5F26" mask="url(#d)"><path d="M-22.5-36H81V82.5H-22.5z"/></g></g><g transform="translate(32.5 58)"><mask id="f" fill="#fff"><use xlink:href="#e"/></mask><g fill="#8B5F26" mask="url(#f)"><path d="M-16.5-36.036H87V90.43H-16.5z"/></g></g><g fill-rule="nonzero"><path fill="#FFBD66" d="M104.5 40v8h-81v-8h4.653C28.857 23.137 40.625 9.213 56.2 5.672V0h15.6v5.672C87.375 9.213 99.143 23.137 99.847 40h4.653z"/><path fill="#E7A753" d="M71.8 6.4c2.456.606 4.536 1.256 6.24 1.949v15.34c0 4.681-6.24 4.681-6.24 0V6.4zm-15.6 0v17.29c0 4.68-6.24 4.68-6.24 0V8.348c1.704-.693 3.784-1.343 6.24-1.949z"/><path stroke="#E7A753" stroke-linecap="round" stroke-width="1.5" d="M44.5 39.2h39"/></g></g></svg>